# xmcd CD database file
#
# Track frame offsets:
#	150
#	13782
#	25875
#	35185
#	45537
#	57370
#	66250
#	76425
#	87957
#	96387
#
# Disc length: 1437 seconds
#
# Revision: 0
# Processed by: cddbd v1.5.2PL0 Copyright (c) Steve Scherf et al.
# Submitted via: CdAid (MTCDDB.DLL V2003.07.15)
#
DISCID=84059b0a
DTITLE=Willie Nelson - A Step Beyond
DYEAR=1998
DGENRE=Country
TTITLE0=Everything But You
TTITLE1=Happiness Lives Next Door
TTITLE2=Right From Wrong
TTITLE3=Pride Wins Again
TTITLE4=Night Life
TTITLE5=Why Are You Picking On Me
TTITLE6=Healing Hands Of Time
TTITLE7=Touch Me
TTITLE8=Slow Down Old World
TTITLE9=Some Other Time
EXTD=ID3G:   2 YEAR: 1998
EXTT0=
EXTT1=
EXTT2=
EXTT3=
EXTT4=
EXTT5=
EXTT6=
EXTT7=
EXTT8=
EXTT9=
PLAYORDER=
